<svg xmlns="http://www.w3.org/2000/svg" xmlns:xlink="http://www.w3.org/1999/xlink" width="1584" zoomAndPan="magnify" viewBox="0 0 1188 296.999993" height="396" preserveAspectRatio="xMidYMid meet" version="1.0"><defs><g/><clipPath id="0fb813d6ff"><path d="M 33.332031 81.214844 L 201.921875 81.214844 L 201.921875 215.460938 L 33.332031 215.460938 Z M 33.332031 81.214844 " clip-rule="nonzero"/></clipPath></defs><g fill="#000000" fill-opacity="1"><g transform="translate(231.20931, 169.386203)"><g><path d="M 35.46875 -8.8125 L 16.84375 -8.8125 L 13.859375 0 L 1.140625 0 L 19.203125 -49.90625 L 33.265625 -49.90625 L 51.328125 0 L 38.46875 0 Z M 32.34375 -18.203125 L 26.15625 -36.46875 L 20.046875 -18.203125 Z M 32.34375 -18.203125 "/></g></g></g><g fill="#000000" fill-opacity="1"><g transform="translate(283.587693, 169.386203)"><g><path d="M 1.984375 -19.90625 C 1.984375 -23.976562 2.753906 -27.554688 4.296875 -30.640625 C 5.835938 -33.722656 7.9375 -36.09375 10.59375 -37.75 C 13.25 -39.40625 16.210938 -40.234375 19.484375 -40.234375 C 22.085938 -40.234375 24.46875 -39.6875 26.625 -38.59375 C 28.78125 -37.507812 30.472656 -36.046875 31.703125 -34.203125 L 31.703125 -52.609375 L 43.859375 -52.609375 L 43.859375 0 L 31.703125 0 L 31.703125 -5.6875 C 30.566406 -3.789062 28.941406 -2.273438 26.828125 -1.140625 C 24.722656 -0.00390625 22.273438 0.5625 19.484375 0.5625 C 16.210938 0.5625 13.25 -0.273438 10.59375 -1.953125 C 7.9375 -3.640625 5.835938 -6.035156 4.296875 -9.140625 C 2.753906 -12.242188 1.984375 -15.832031 1.984375 -19.90625 Z M 31.703125 -19.828125 C 31.703125 -22.867188 30.859375 -25.265625 29.171875 -27.015625 C 27.492188 -28.765625 25.445312 -29.640625 23.03125 -29.640625 C 20.613281 -29.640625 18.5625 -28.773438 16.875 -27.046875 C 15.195312 -25.316406 14.359375 -22.9375 14.359375 -19.90625 C 14.359375 -16.875 15.195312 -14.46875 16.875 -12.6875 C 18.5625 -10.914062 20.613281 -10.03125 23.03125 -10.03125 C 25.445312 -10.03125 27.492188 -10.90625 29.171875 -12.65625 C 30.859375 -14.40625 31.703125 -16.796875 31.703125 -19.828125 Z M 31.703125 -19.828125 "/></g></g></g><g fill="#000000" fill-opacity="1"><g transform="translate(331.844018, 169.386203)"><g><path d="M 16.5625 -33.0625 C 17.988281 -35.238281 19.765625 -36.953125 21.890625 -38.203125 C 24.023438 -39.460938 26.394531 -40.09375 29 -40.09375 L 29 -27.234375 L 25.671875 -27.234375 C 22.628906 -27.234375 20.347656 -26.578125 18.828125 -25.265625 C 17.316406 -23.960938 16.5625 -21.675781 16.5625 -18.40625 L 16.5625 0 L 4.40625 0 L 4.40625 -39.671875 L 16.5625 -39.671875 Z M 16.5625 -33.0625 "/></g></g></g><g fill="#000000" fill-opacity="1"><g transform="translate(362.261859, 169.386203)"><g><path d="M 10.515625 -43.796875 C 8.390625 -43.796875 6.648438 -44.421875 5.296875 -45.671875 C 3.941406 -46.929688 3.265625 -48.484375 3.265625 -50.328125 C 3.265625 -52.222656 3.941406 -53.800781 5.296875 -55.0625 C 6.648438 -56.320312 8.390625 -56.953125 10.515625 -56.953125 C 12.609375 -56.953125 14.328125 -56.320312 15.671875 -55.0625 C 17.023438 -53.800781 17.703125 -52.222656 17.703125 -50.328125 C 17.703125 -48.484375 17.023438 -46.929688 15.671875 -45.671875 C 14.328125 -44.421875 12.609375 -43.796875 10.515625 -43.796875 Z M 16.5625 -39.671875 L 16.5625 0 L 4.40625 0 L 4.40625 -39.671875 Z M 16.5625 -39.671875 "/></g></g></g><g fill="#000000" fill-opacity="1"><g transform="translate(383.227422, 169.386203)"><g><path d="M 1.984375 -19.90625 C 1.984375 -23.976562 2.753906 -27.554688 4.296875 -30.640625 C 5.835938 -33.722656 7.9375 -36.09375 10.59375 -37.75 C 13.25 -39.40625 16.210938 -40.234375 19.484375 -40.234375 C 22.273438 -40.234375 24.722656 -39.664062 26.828125 -38.53125 C 28.941406 -37.394531 30.566406 -35.898438 31.703125 -34.046875 L 31.703125 -39.671875 L 43.859375 -39.671875 L 43.859375 0 L 31.703125 0 L 31.703125 -5.609375 C 30.523438 -3.765625 28.878906 -2.273438 26.765625 -1.140625 C 24.660156 -0.00390625 22.207031 0.5625 19.40625 0.5625 C 16.1875 0.5625 13.25 -0.273438 10.59375 -1.953125 C 7.9375 -3.640625 5.835938 -6.035156 4.296875 -9.140625 C 2.753906 -12.242188 1.984375 -15.832031 1.984375 -19.90625 Z M 31.703125 -19.828125 C 31.703125 -22.867188 30.859375 -25.265625 29.171875 -27.015625 C 27.492188 -28.765625 25.445312 -29.640625 23.03125 -29.640625 C 20.613281 -29.640625 18.5625 -28.773438 16.875 -27.046875 C 15.195312 -25.316406 14.359375 -22.9375 14.359375 -19.90625 C 14.359375 -16.875 15.195312 -14.46875 16.875 -12.6875 C 18.5625 -10.914062 20.613281 -10.03125 23.03125 -10.03125 C 25.445312 -10.03125 27.492188 -10.90625 29.171875 -12.65625 C 30.859375 -14.40625 31.703125 -16.796875 31.703125 -19.828125 Z M 31.703125 -19.828125 "/></g></g></g><g fill="#000000" fill-opacity="1"><g transform="translate(431.483747, 169.386203)"><g><path d="M 28.578125 -40.09375 C 33.222656 -40.09375 36.929688 -38.585938 39.703125 -35.578125 C 42.472656 -32.566406 43.859375 -28.429688 43.859375 -23.171875 L 43.859375 0 L 31.78125 0 L 31.78125 -21.546875 C 31.78125 -24.191406 31.09375 -26.25 29.71875 -27.71875 C 28.34375 -29.195312 26.492188 -29.9375 24.171875 -29.9375 C 21.847656 -29.9375 20 -29.195312 18.625 -27.71875 C 17.25 -26.25 16.5625 -24.191406 16.5625 -21.546875 L 16.5625 0 L 4.40625 0 L 4.40625 -39.671875 L 16.5625 -39.671875 L 16.5625 -34.40625 C 17.789062 -36.164062 19.445312 -37.550781 21.53125 -38.5625 C 23.625 -39.582031 25.972656 -40.09375 28.578125 -40.09375 Z M 28.578125 -40.09375 "/></g></g></g><g fill="#000000" fill-opacity="1"><g transform="translate(479.384718, 169.386203)"><g><path d="M 22.46875 0.5625 C 18.582031 0.5625 15.085938 -0.265625 11.984375 -1.921875 C 8.878906 -3.578125 6.4375 -5.945312 4.65625 -9.03125 C 2.875 -12.113281 1.984375 -15.710938 1.984375 -19.828125 C 1.984375 -23.910156 2.882812 -27.503906 4.6875 -30.609375 C 6.488281 -33.710938 8.953125 -36.09375 12.078125 -37.75 C 15.210938 -39.40625 18.722656 -40.234375 22.609375 -40.234375 C 26.492188 -40.234375 30 -39.40625 33.125 -37.75 C 36.257812 -36.09375 38.722656 -33.710938 40.515625 -30.609375 C 42.316406 -27.503906 43.21875 -23.910156 43.21875 -19.828125 C 43.21875 -15.753906 42.304688 -12.164062 40.484375 -9.0625 C 38.660156 -5.957031 36.171875 -3.578125 33.015625 -1.921875 C 29.867188 -0.265625 26.351562 0.5625 22.46875 0.5625 Z M 22.46875 -9.953125 C 24.789062 -9.953125 26.769531 -10.804688 28.40625 -12.515625 C 30.039062 -14.222656 30.859375 -16.660156 30.859375 -19.828125 C 30.859375 -23.003906 30.0625 -25.445312 28.46875 -27.15625 C 26.882812 -28.863281 24.929688 -29.71875 22.609375 -29.71875 C 20.234375 -29.71875 18.265625 -28.875 16.703125 -27.1875 C 15.140625 -25.507812 14.359375 -23.054688 14.359375 -19.828125 C 14.359375 -16.660156 15.128906 -14.222656 16.671875 -12.515625 C 18.210938 -10.804688 20.144531 -9.953125 22.46875 -9.953125 Z M 22.46875 -9.953125 "/></g></g></g><g fill="#000000" fill-opacity="1"><g transform="translate(524.656102, 169.386203)"><g/></g></g><g fill="#000000" fill-opacity="1"><g transform="translate(539.722868, 169.386203)"><g><path d="M 51.265625 -49.90625 L 33.5625 0 L 18.34375 0 L 0.640625 -49.90625 L 13.578125 -49.90625 L 25.953125 -12.234375 L 38.390625 -49.90625 Z M 51.265625 -49.90625 "/></g></g></g><g fill="#000000" fill-opacity="1"><g transform="translate(591.60376, 169.386203)"><g><path d="M 10.515625 -43.796875 C 8.390625 -43.796875 6.648438 -44.421875 5.296875 -45.671875 C 3.941406 -46.929688 3.265625 -48.484375 3.265625 -50.328125 C 3.265625 -52.222656 3.941406 -53.800781 5.296875 -55.0625 C 6.648438 -56.320312 8.390625 -56.953125 10.515625 -56.953125 C 12.609375 -56.953125 14.328125 -56.320312 15.671875 -55.0625 C 17.023438 -53.800781 17.703125 -52.222656 17.703125 -50.328125 C 17.703125 -48.484375 17.023438 -46.929688 15.671875 -45.671875 C 14.328125 -44.421875 12.609375 -43.796875 10.515625 -43.796875 Z M 16.5625 -39.671875 L 16.5625 0 L 4.40625 0 L 4.40625 -39.671875 Z M 16.5625 -39.671875 "/></g></g></g><g fill="#000000" fill-opacity="1"><g transform="translate(612.569323, 169.386203)"><g><path d="M 26.515625 -10.3125 L 26.515625 0 L 20.328125 0 C 15.921875 0 12.484375 -1.078125 10.015625 -3.234375 C 7.554688 -5.390625 6.328125 -8.910156 6.328125 -13.796875 L 6.328125 -29.578125 L 1.5 -29.578125 L 1.5 -39.671875 L 6.328125 -39.671875 L 6.328125 -49.34375 L 18.484375 -49.34375 L 18.484375 -39.671875 L 26.453125 -39.671875 L 26.453125 -29.578125 L 18.484375 -29.578125 L 18.484375 -13.65625 C 18.484375 -12.46875 18.765625 -11.613281 19.328125 -11.09375 C 19.898438 -10.570312 20.851562 -10.3125 22.1875 -10.3125 Z M 26.515625 -10.3125 "/></g></g></g><g fill="#000000" fill-opacity="1"><g transform="translate(641.423605, 169.386203)"><g><path d="M 1.984375 -19.90625 C 1.984375 -23.976562 2.753906 -27.554688 4.296875 -30.640625 C 5.835938 -33.722656 7.9375 -36.09375 10.59375 -37.75 C 13.25 -39.40625 16.210938 -40.234375 19.484375 -40.234375 C 22.273438 -40.234375 24.722656 -39.664062 26.828125 -38.53125 C 28.941406 -37.394531 30.566406 -35.898438 31.703125 -34.046875 L 31.703125 -39.671875 L 43.859375 -39.671875 L 43.859375 0 L 31.703125 0 L 31.703125 -5.609375 C 30.523438 -3.765625 28.878906 -2.273438 26.765625 -1.140625 C 24.660156 -0.00390625 22.207031 0.5625 19.40625 0.5625 C 16.1875 0.5625 13.25 -0.273438 10.59375 -1.953125 C 7.9375 -3.640625 5.835938 -6.035156 4.296875 -9.140625 C 2.753906 -12.242188 1.984375 -15.832031 1.984375 -19.90625 Z M 31.703125 -19.828125 C 31.703125 -22.867188 30.859375 -25.265625 29.171875 -27.015625 C 27.492188 -28.765625 25.445312 -29.640625 23.03125 -29.640625 C 20.613281 -29.640625 18.5625 -28.773438 16.875 -27.046875 C 15.195312 -25.316406 14.359375 -22.9375 14.359375 -19.90625 C 14.359375 -16.875 15.195312 -14.46875 16.875 -12.6875 C 18.5625 -10.914062 20.613281 -10.03125 23.03125 -10.03125 C 25.445312 -10.03125 27.492188 -10.90625 29.171875 -12.65625 C 30.859375 -14.40625 31.703125 -16.796875 31.703125 -19.828125 Z M 31.703125 -19.828125 "/></g></g></g><g fill="#000000" fill-opacity="1"><g transform="translate(689.67993, 169.386203)"><g><path d="M 16.5625 -52.609375 L 16.5625 0 L 4.40625 0 L 4.40625 -52.609375 Z M 16.5625 -52.609375 "/></g></g></g><g fill="#000000" fill-opacity="1"><g transform="translate(741.084758, 159.731055)"><g><path d="M 17.03125 -23.046875 L 17.03125 -18.546875 L 7.65625 -18.546875 L 7.65625 -13.6875 L 14.671875 -13.6875 L 14.671875 -9.328125 L 7.65625 -9.328125 L 7.65625 0 L 2.03125 0 L 2.03125 -23.046875 Z M 17.03125 -23.046875 "/></g></g></g><g fill="#000000" fill-opacity="1"><g transform="translate(759.033563, 159.731055)"><g><path d="M 13.78125 0 L 9 -8.703125 L 7.65625 -8.703125 L 7.65625 0 L 2.03125 0 L 2.03125 -23.046875 L 11.453125 -23.046875 C 13.273438 -23.046875 14.820312 -22.726562 16.09375 -22.09375 C 17.375 -21.457031 18.332031 -20.585938 18.96875 -19.484375 C 19.601562 -18.378906 19.921875 -17.148438 19.921875 -15.796875 C 19.921875 -14.265625 19.488281 -12.894531 18.625 -11.6875 C 17.757812 -10.476562 16.488281 -9.625 14.8125 -9.125 L 20.125 0 Z M 7.65625 -12.671875 L 11.125 -12.671875 C 12.15625 -12.671875 12.925781 -12.921875 13.4375 -13.421875 C 13.957031 -13.929688 14.21875 -14.644531 14.21875 -15.5625 C 14.21875 -16.4375 13.957031 -17.125 13.4375 -17.625 C 12.925781 -18.132812 12.15625 -18.390625 11.125 -18.390625 L 7.65625 -18.390625 Z M 7.65625 -12.671875 "/></g></g></g><g fill="#000000" fill-opacity="1"><g transform="translate(780.427764, 159.731055)"><g><path d="M 12.9375 0.234375 C 10.769531 0.234375 8.78125 -0.269531 6.96875 -1.28125 C 5.164062 -2.289062 3.734375 -3.695312 2.671875 -5.5 C 1.609375 -7.300781 1.078125 -9.332031 1.078125 -11.59375 C 1.078125 -13.84375 1.609375 -15.863281 2.671875 -17.65625 C 3.734375 -19.457031 5.164062 -20.859375 6.96875 -21.859375 C 8.78125 -22.867188 10.769531 -23.375 12.9375 -23.375 C 15.101562 -23.375 17.085938 -22.867188 18.890625 -21.859375 C 20.691406 -20.859375 22.113281 -19.457031 23.15625 -17.65625 C 24.195312 -15.863281 24.71875 -13.84375 24.71875 -11.59375 C 24.71875 -9.332031 24.191406 -7.300781 23.140625 -5.5 C 22.085938 -3.695312 20.664062 -2.289062 18.875 -1.28125 C 17.082031 -0.269531 15.101562 0.234375 12.9375 0.234375 Z M 12.9375 -4.890625 C 14.769531 -4.890625 16.238281 -5.5 17.34375 -6.71875 C 18.445312 -7.945312 19 -9.570312 19 -11.59375 C 19 -13.625 18.445312 -15.242188 17.34375 -16.453125 C 16.238281 -17.671875 14.769531 -18.28125 12.9375 -18.28125 C 11.070312 -18.28125 9.585938 -17.675781 8.484375 -16.46875 C 7.378906 -15.269531 6.828125 -13.644531 6.828125 -11.59375 C 6.828125 -9.550781 7.378906 -7.921875 8.484375 -6.703125 C 9.585938 -5.492188 11.070312 -4.890625 12.9375 -4.890625 Z M 12.9375 -4.890625 "/></g></g></g><g fill="#000000" fill-opacity="1"><g transform="translate(806.218897, 159.731055)"><g><path d="M 22.65625 0 L 17.03125 0 L 7.65625 -14.21875 L 7.65625 0 L 2.03125 0 L 2.03125 -23.046875 L 7.65625 -23.046875 L 17.03125 -8.765625 L 17.03125 -23.046875 L 22.65625 -23.046875 Z M 22.65625 0 "/></g></g></g><g fill="#000000" fill-opacity="1"><g transform="translate(830.894386, 159.731055)"><g><path d="M 18.609375 -23.046875 L 18.609375 -18.546875 L 12.5 -18.546875 L 12.5 0 L 6.890625 0 L 6.890625 -18.546875 L 0.78125 -18.546875 L 0.78125 -23.046875 Z M 18.609375 -23.046875 "/></g></g></g><g fill="#000000" fill-opacity="1"><g transform="translate(850.286968, 159.731055)"><g><path d="M 16.15625 -13.859375 L 16.15625 -9.1875 L 1.703125 -9.1875 L 1.703125 -13.859375 Z M 16.15625 -13.859375 "/></g></g></g><g fill="#000000" fill-opacity="1"><g transform="translate(869.318595, 159.731055)"><g><path d="M 7.65625 -18.546875 L 7.65625 -13.890625 L 15.171875 -13.890625 L 15.171875 -9.546875 L 7.65625 -9.546875 L 7.65625 -4.5 L 16.15625 -4.5 L 16.15625 0 L 2.03125 0 L 2.03125 -23.046875 L 16.15625 -23.046875 L 16.15625 -18.546875 Z M 7.65625 -18.546875 "/></g></g></g><g fill="#000000" fill-opacity="1"><g transform="translate(887.070512, 159.731055)"><g><path d="M 22.65625 0 L 17.03125 0 L 7.65625 -14.21875 L 7.65625 0 L 2.03125 0 L 2.03125 -23.046875 L 7.65625 -23.046875 L 17.03125 -8.765625 L 17.03125 -23.046875 L 22.65625 -23.046875 Z M 22.65625 0 "/></g></g></g><g fill="#000000" fill-opacity="1"><g transform="translate(911.746001, 159.731055)"><g><path d="M 10.671875 -23.046875 C 13.097656 -23.046875 15.21875 -22.5625 17.03125 -21.59375 C 18.851562 -20.632812 20.257812 -19.285156 21.25 -17.546875 C 22.25 -15.804688 22.75 -13.796875 22.75 -11.515625 C 22.75 -9.265625 22.25 -7.265625 21.25 -5.515625 C 20.257812 -3.765625 18.847656 -2.40625 17.015625 -1.4375 C 15.191406 -0.476562 13.078125 0 10.671875 0 L 2.03125 0 L 2.03125 -23.046875 Z M 10.3125 -4.859375 C 12.4375 -4.859375 14.085938 -5.4375 15.265625 -6.59375 C 16.441406 -7.757812 17.03125 -9.398438 17.03125 -11.515625 C 17.03125 -13.640625 16.441406 -15.289062 15.265625 -16.46875 C 14.085938 -17.65625 12.4375 -18.25 10.3125 -18.25 L 7.65625 -18.25 L 7.65625 -4.859375 Z M 10.3125 -4.859375 "/></g></g></g><g fill="#000000" fill-opacity="1"><g transform="translate(935.601158, 159.731055)"><g/></g></g><g fill="#000000" fill-opacity="1"><g transform="translate(942.557551, 159.731055)"><g><path d="M 10.671875 -23.046875 C 13.097656 -23.046875 15.21875 -22.5625 17.03125 -21.59375 C 18.851562 -20.632812 20.257812 -19.285156 21.25 -17.546875 C 22.25 -15.804688 22.75 -13.796875 22.75 -11.515625 C 22.75 -9.265625 22.25 -7.265625 21.25 -5.515625 C 20.257812 -3.765625 18.847656 -2.40625 17.015625 -1.4375 C 15.191406 -0.476562 13.078125 0 10.671875 0 L 2.03125 0 L 2.03125 -23.046875 Z M 10.3125 -4.859375 C 12.4375 -4.859375 14.085938 -5.4375 15.265625 -6.59375 C 16.441406 -7.757812 17.03125 -9.398438 17.03125 -11.515625 C 17.03125 -13.640625 16.441406 -15.289062 15.265625 -16.46875 C 14.085938 -17.65625 12.4375 -18.25 10.3125 -18.25 L 7.65625 -18.25 L 7.65625 -4.859375 Z M 10.3125 -4.859375 "/></g></g></g><g fill="#000000" fill-opacity="1"><g transform="translate(966.412708, 159.731055)"><g><path d="M 7.65625 -18.546875 L 7.65625 -13.890625 L 15.171875 -13.890625 L 15.171875 -9.546875 L 7.65625 -9.546875 L 7.65625 -4.5 L 16.15625 -4.5 L 16.15625 0 L 2.03125 0 L 2.03125 -23.046875 L 16.15625 -23.046875 L 16.15625 -18.546875 Z M 7.65625 -18.546875 "/></g></g></g><g fill="#000000" fill-opacity="1"><g transform="translate(984.164625, 159.731055)"><g><path d="M 23.671875 -23.046875 L 15.5 0 L 8.46875 0 L 0.296875 -23.046875 L 6.265625 -23.046875 L 11.984375 -5.640625 L 17.734375 -23.046875 Z M 23.671875 -23.046875 "/></g></g></g><g fill="#000000" fill-opacity="1"><g transform="translate(1008.118246, 159.731055)"><g><path d="M 7.65625 -18.546875 L 7.65625 -13.890625 L 15.171875 -13.890625 L 15.171875 -9.546875 L 7.65625 -9.546875 L 7.65625 -4.5 L 16.15625 -4.5 L 16.15625 0 L 2.03125 0 L 2.03125 -23.046875 L 16.15625 -23.046875 L 16.15625 -18.546875 Z M 7.65625 -18.546875 "/></g></g></g><g fill="#000000" fill-opacity="1"><g transform="translate(1025.870164, 159.731055)"><g><path d="M 7.65625 -4.328125 L 15 -4.328125 L 15 0 L 2.03125 0 L 2.03125 -23.046875 L 7.65625 -23.046875 Z M 7.65625 -4.328125 "/></g></g></g><g fill="#000000" fill-opacity="1"><g transform="translate(1041.522038, 159.731055)"><g><path d="M 12.9375 0.234375 C 10.769531 0.234375 8.78125 -0.269531 6.96875 -1.28125 C 5.164062 -2.289062 3.734375 -3.695312 2.671875 -5.5 C 1.609375 -7.300781 1.078125 -9.332031 1.078125 -11.59375 C 1.078125 -13.84375 1.609375 -15.863281 2.671875 -17.65625 C 3.734375 -19.457031 5.164062 -20.859375 6.96875 -21.859375 C 8.78125 -22.867188 10.769531 -23.375 12.9375 -23.375 C 15.101562 -23.375 17.085938 -22.867188 18.890625 -21.859375 C 20.691406 -20.859375 22.113281 -19.457031 23.15625 -17.65625 C 24.195312 -15.863281 24.71875 -13.84375 24.71875 -11.59375 C 24.71875 -9.332031 24.191406 -7.300781 23.140625 -5.5 C 22.085938 -3.695312 20.664062 -2.289062 18.875 -1.28125 C 17.082031 -0.269531 15.101562 0.234375 12.9375 0.234375 Z M 12.9375 -4.890625 C 14.769531 -4.890625 16.238281 -5.5 17.34375 -6.71875 C 18.445312 -7.945312 19 -9.570312 19 -11.59375 C 19 -13.625 18.445312 -15.242188 17.34375 -16.453125 C 16.238281 -17.671875 14.769531 -18.28125 12.9375 -18.28125 C 11.070312 -18.28125 9.585938 -17.675781 8.484375 -16.46875 C 7.378906 -15.269531 6.828125 -13.644531 6.828125 -11.59375 C 6.828125 -9.550781 7.378906 -7.921875 8.484375 -6.703125 C 9.585938 -5.492188 11.070312 -4.890625 12.9375 -4.890625 Z M 12.9375 -4.890625 "/></g></g></g><g fill="#000000" fill-opacity="1"><g transform="translate(1067.313171, 159.731055)"><g><path d="M 19.59375 -15.625 C 19.59375 -14.289062 19.285156 -13.070312 18.671875 -11.96875 C 18.066406 -10.863281 17.128906 -9.96875 15.859375 -9.28125 C 14.585938 -8.601562 13.007812 -8.265625 11.125 -8.265625 L 7.65625 -8.265625 L 7.65625 0 L 2.03125 0 L 2.03125 -23.046875 L 11.125 -23.046875 C 12.96875 -23.046875 14.519531 -22.726562 15.78125 -22.09375 C 17.050781 -21.457031 18.003906 -20.582031 18.640625 -19.46875 C 19.273438 -18.351562 19.59375 -17.070312 19.59375 -15.625 Z M 10.703125 -12.734375 C 11.773438 -12.734375 12.570312 -12.984375 13.09375 -13.484375 C 13.625 -13.992188 13.890625 -14.707031 13.890625 -15.625 C 13.890625 -16.539062 13.625 -17.25 13.09375 -17.75 C 12.570312 -18.257812 11.773438 -18.515625 10.703125 -18.515625 L 7.65625 -18.515625 L 7.65625 -12.734375 Z M 10.703125 -12.734375 "/></g></g></g><g fill="#000000" fill-opacity="1"><g transform="translate(1087.788575, 159.731055)"><g><path d="M 7.65625 -18.546875 L 7.65625 -13.890625 L 15.171875 -13.890625 L 15.171875 -9.546875 L 7.65625 -9.546875 L 7.65625 -4.5 L 16.15625 -4.5 L 16.15625 0 L 2.03125 0 L 2.03125 -23.046875 L 16.15625 -23.046875 L 16.15625 -18.546875 Z M 7.65625 -18.546875 "/></g></g></g><g fill="#000000" fill-opacity="1"><g transform="translate(1105.540493, 159.731055)"><g><path d="M 13.78125 0 L 9 -8.703125 L 7.65625 -8.703125 L 7.65625 0 L 2.03125 0 L 2.03125 -23.046875 L 11.453125 -23.046875 C 13.273438 -23.046875 14.820312 -22.726562 16.09375 -22.09375 C 17.375 -21.457031 18.332031 -20.585938 18.96875 -19.484375 C 19.601562 -18.378906 19.921875 -17.148438 19.921875 -15.796875 C 19.921875 -14.265625 19.488281 -12.894531 18.625 -11.6875 C 17.757812 -10.476562 16.488281 -9.625 14.8125 -9.125 L 20.125 0 Z M 7.65625 -12.671875 L 11.125 -12.671875 C 12.15625 -12.671875 12.925781 -12.921875 13.4375 -13.421875 C 13.957031 -13.929688 14.21875 -14.644531 14.21875 -15.5625 C 14.21875 -16.4375 13.957031 -17.125 13.4375 -17.625 C 12.925781 -18.132812 12.15625 -18.390625 11.125 -18.390625 L 7.65625 -18.390625 Z M 7.65625 -12.671875 "/></g></g></g><g clip-path="url(#0fb813d6ff)"><path fill="#004efc" d="M 136.566406 81.53125 C 132.097656 80.242188 127.445312 82.84375 126.15625 87.3125 L 92.519531 205.054688 C 91.230469 209.523438 93.832031 214.171875 98.300781 215.460938 C 102.769531 216.75 107.417969 214.148438 108.707031 209.679688 L 142.347656 91.9375 C 143.636719 87.472656 141.035156 82.820312 136.566406 81.53125 Z M 157.75 113.09375 C 154.464844 116.378906 154.464844 121.714844 157.75 125 L 181.21875 148.496094 L 157.722656 171.992188 C 154.4375 175.277344 154.4375 180.613281 157.722656 183.898438 C 161.007812 187.183594 166.34375 187.183594 169.628906 183.898438 L 199.0625 154.460938 C 202.347656 151.175781 202.347656 145.84375 199.0625 142.558594 L 169.628906 113.121094 C 166.34375 109.835938 161.007812 109.835938 157.722656 113.121094 Z M 77.144531 113.09375 C 73.859375 109.808594 68.523438 109.808594 65.238281 113.09375 L 35.800781 142.53125 C 32.515625 145.816406 32.515625 151.152344 35.800781 154.4375 L 65.238281 183.871094 C 68.523438 187.15625 73.859375 187.15625 77.144531 183.871094 C 80.429688 180.585938 80.429688 175.25 77.144531 171.964844 L 53.648438 148.496094 L 77.144531 125 C 80.429688 121.714844 80.429688 116.378906 77.144531 113.09375 Z M 77.144531 113.09375 " fill-opacity="1" fill-rule="nonzero"/></g></svg>